<?xml version="1.0" standalone="no"?>
<!DOCTYPE svg PUBLIC "-//W3C//DTD SVG 20010904//EN"
 "http://www.w3.org/TR/2001/REC-SVG-20010904/DTD/svg10.dtd">
<svg version="1.0" xmlns="http://www.w3.org/2000/svg"
 width="1444.000000pt" height="1444.000000pt" viewBox="0 0 1444.000000 1444.000000"
 preserveAspectRatio="xMidYMid meet">
<metadata>
Created by potrace 1.14, written by Peter Selinger 2001-2017
</metadata>
<g transform="translate(0.000000,1444.000000) scale(0.100000,-0.100000)"
fill="#000000" stroke="none">
<path d="M2888 11467 c-91 -26 -170 -98 -224 -204 -16 -32 -31 -60 -34 -63 -7
-6 -80 -159 -80 -166 0 -3 -11 -30 -25 -59 -13 -30 -28 -67 -31 -82 -4 -16
-14 -38 -21 -50 -8 -12 -14 -24 -14 -28 1 -3 -6 -31 -16 -63 -9 -31 -18 -60
-19 -64 -1 -5 -2 -9 -4 -10 -1 -2 -3 -11 -5 -20 -2 -9 -8 -32 -14 -50 -6 -18
-12 -44 -15 -58 -3 -14 -7 -35 -10 -47 -4 -13 -8 -33 -11 -45 -4 -13 -8 -36
-10 -53 -3 -16 -7 -41 -10 -55 -14 -71 -15 -79 -32 -235 -9 -81 -9 -441 0
-535 11 -128 17 -173 27 -225 6 -27 12 -61 15 -75 3 -14 7 -36 10 -50 3 -14 7
-34 9 -46 10 -52 59 -230 66 -239 5 -5 9 -13 9 -17 1 -9 2 -14 6 -25 1 -5 6
-23 10 -41 4 -18 12 -35 16 -38 5 -3 9 -12 9 -20 0 -8 8 -32 18 -53 l19 -38
-59 -89 c-57 -85 -151 -240 -213 -349 -43 -76 -182 -357 -190 -385 -4 -14 -11
-27 -14 -30 -8 -6 -112 -267 -117 -293 -2 -11 -8 -24 -13 -31 -5 -6 -9 -13 -8
-16 0 -5 -39 -134 -50 -160 -3 -8 -7 -19 -8 -25 -2 -5 -13 -46 -25 -90 -12
-44 -23 -84 -25 -90 -1 -5 -5 -17 -8 -25 -3 -8 -8 -28 -11 -45 -4 -16 -9 -41
-12 -55 -3 -14 -7 -32 -9 -40 -2 -8 -4 -15 -5 -15 -2 0 -11 -54 -12 -72 -1 -7
-8 -13 -17 -14 -9 0 -402 -1 -873 -1 l-858 -1 0 -327 0 -328 821 0 c842 0 853
-1 831 -36 -3 -6 -7 -130 -8 -276 -2 -146 -3 -283 -3 -305 l-1 -40 -820 1
-820 2 0 -327 0 -328 105 1 c58 1 105 -3 105 -8 0 -5 6 -4 13 1 6 6 35 8 62 6
28 -2 55 -4 60 -3 95 5 505 3 505 -4 0 -5 6 -4 12 1 7 6 36 8 63 6 28 -2 55
-4 60 -3 17 1 369 2 390 1 11 -1 62 0 113 1 50 2 92 -1 92 -5 0 -5 6 -5 13 0
21 13 38 12 44 -4 3 -8 6 -452 7 -986 l1 -972 5575 -1 c5072 -1 5576 1 5581
15 4 9 2 22 -3 28 -6 7 -7 13 -2 13 5 0 9 36 9 80 0 44 -4 80 -8 80 -5 0 -5 5
-1 12 11 17 11 108 1 108 -5 0 -5 5 -1 12 11 17 11 108 1 108 -5 0 -5 5 -1 12
11 17 11 108 1 108 -5 0 -5 5 -1 12 11 17 11 108 1 108 -5 0 -5 5 -1 12 11 17
11 108 1 108 -5 0 -5 5 -1 12 11 17 11 108 1 108 -5 0 -5 5 -1 12 11 17 11
108 1 108 -5 0 -5 5 -1 12 11 17 11 108 1 108 -5 0 -5 5 -1 11 11 18 11 192 1
207 -5 6 -6 12 -1 12 5 0 9 23 9 50 0 28 -4 50 -8 50 -5 0 -5 5 -1 12 11 17
11 138 1 138 -5 0 -5 5 -1 12 11 17 11 108 1 108 -5 0 -5 5 -1 12 11 17 11
108 1 108 -4 0 -4 7 1 16 5 9 7 25 5 35 -4 13 0 19 13 20 20 1 204 1 239 0 11
-1 47 -1 80 0 33 0 69 0 80 0 11 -1 62 0 113 1 50 2 92 -1 92 -5 0 -5 5 -5 11
-2 17 11 59 13 59 2 0 -6 4 -6 13 0 6 6 35 8 62 6 28 -2 55 -4 60 -3 98 5 345
3 345 -4 0 -5 6 -4 13 1 6 6 35 8 62 6 28 -2 57 -4 65 -3 8 0 86 1 173 2 l157
1 0 328 0 327 -55 -2 c-30 -1 -55 2 -55 6 0 4 -7 5 -16 1 -23 -9 -784 -10
-784 -1 0 4 -7 5 -16 1 -22 -8 -464 -10 -464 -1 0 4 -12 3 -27 0 -32 -8 -211
-7 -219 1 -3 3 -7 151 -9 329 l-3 323 824 -1 824 -2 -2 327 -3 326 -865 1
-865 1 -27 109 c-15 60 -29 118 -30 129 -2 11 -6 25 -10 30 -5 9 -13 39 -23
95 -3 14 -9 34 -14 45 -5 11 -24 67 -41 125 -18 58 -35 110 -39 115 -3 6 -6
15 -7 20 -4 22 -86 231 -96 243 -6 6 -7 12 -4 12 4 0 1 12 -7 28 -8 15 -34 68
-57 117 -107 226 -253 495 -272 503 -4 2 -8 9 -8 16 0 7 -9 22 -20 34 -12 12
-18 22 -15 22 3 0 -5 15 -17 33 -13 19 -40 59 -60 89 l-38 56 39 104 c34 91
54 158 52 166 -1 1 5 17 13 36 12 29 21 65 52 199 1 4 2 8 3 10 2 1 4 16 6 32
2 17 7 41 10 55 7 26 11 52 21 135 3 28 8 64 10 80 11 94 14 146 15 295 0 91
-2 194 -6 230 -3 36 -8 85 -10 110 -2 25 -6 62 -9 83 -3 20 -8 53 -11 73 -3
19 -12 68 -20 107 -8 40 -16 81 -18 92 -2 11 -7 27 -10 35 -3 8 -7 26 -10 40
-4 20 -34 122 -61 205 -39 121 -159 390 -228 510 -27 47 -105 125 -124 125 -8
0 -14 4 -14 9 0 4 -28 16 -61 26 -52 14 -86 16 -213 10 -149 -7 -179 -9 -264
-19 -52 -6 -172 -28 -237 -42 -16 -4 -37 -8 -45 -9 -41 -5 -332 -95 -347 -108
-7 -5 -13 -6 -13 -2 0 4 -7 1 -17 -6 -9 -8 -17 -12 -17 -10 -1 2 -17 -3 -37
-12 -20 -8 -46 -18 -58 -22 -29 -9 -265 -125 -271 -134 -3 -3 -10 -7 -16 -8
-17 -3 -208 -124 -216 -137 -4 -6 -8 -8 -8 -3 0 4 -22 -10 -49 -30 -27 -21
-61 -47 -77 -58 -58 -41 -188 -154 -281 -243 -36 -34 -49 -35 -120 -6 -18 7
-33 11 -33 9 0 -2 -15 1 -32 6 -18 6 -40 12 -48 14 -176 46 -216 55 -236 55
-12 0 -25 4 -28 9 -3 5 -16 9 -30 9 -13 0 -46 4 -72 10 -27 6 -65 14 -84 17
-19 2 -46 7 -60 10 -24 4 -40 7 -140 19 -95 13 -147 18 -200 21 -30 2 -55 4
-55 5 0 14 -1711 19 -1960 7 -131 -7 -178 -11 -265 -21 -19 -2 -62 -7 -95 -11
-33 -4 -80 -10 -105 -15 -25 -4 -52 -8 -60 -8 -14 -1 -48 -8 -60 -12 -3 -1 -8
-2 -13 -1 -4 1 -26 -3 -50 -8 -23 -6 -54 -12 -69 -15 -16 -3 -38 -8 -50 -11
-13 -3 -32 -7 -43 -9 -11 -2 -40 -9 -65 -16 -25 -6 -72 -18 -105 -26 -33 -8
-64 -16 -70 -17 -168 -55 -157 -55 -214 0 -58 58 -166 152 -195 172 -12 8 -23
18 -26 21 -24 29 -320 230 -339 230 -6 0 -11 3 -11 8 0 4 -20 16 -45 27 -25
11 -45 23 -45 27 0 5 -3 7 -7 6 -5 0 -60 24 -123 54 -103 50 -281 124 -320
133 -8 2 -62 18 -120 36 -58 17 -115 33 -127 34 -11 2 -32 7 -45 11 -12 4 -27
8 -33 9 -13 1 -94 16 -120 22 -11 3 -38 7 -60 9 -44 6 -80 12 -80 14 0 3 -91
8 -245 14 -114 4 -167 2 -202 -7z"/>
</g>
</svg>
